<?xml version="1.0"?>
<svg xmlns="http://www.w3.org/2000/svg" xmlns:xlink="http://www.w3.org/1999/xlink" xmlns:svgjs="http://svgjs.com/svgjs"
     version="1.1" width="512" height="512" x="0" y="0" viewBox="0 0 512 512" style="enable-background:new 0 0 512 512"
     xml:space="preserve" class=""><g>
<path xmlns="http://www.w3.org/2000/svg" style=""
      d="M459.034,379.586v105.931c0,14.627,11.855,26.483,26.483,26.483S512,500.145,512,485.517V379.586  H459.034z"
      fill="#57699d" data-original="#0071bc" class=""/>
<path xmlns="http://www.w3.org/2000/svg" style=""
      d="M432.552,0c14.627,0,26.483,11.855,26.483,26.483v459.034c0,14.627,11.855,26.483,26.483,26.483  H79.448c-14.627,0-26.483-11.855-26.483-26.483V26.483C52.966,11.855,64.821,0,79.448,0H432.552z"
      fill="#e6e6e6" data-original="#e6e6e6" class=""/>
<path xmlns="http://www.w3.org/2000/svg" style=""
      d="M79.448,0h353.103c14.627,0,26.483,11.855,26.483,26.483v44.138H52.966V26.483  C52.966,11.855,64.821,0,79.448,0z"
      fill="#57699d" data-original="#0071bc" class=""/>
<g xmlns="http://www.w3.org/2000/svg">
	<path style="" d="M97.103,114.759h105.931V220.69H97.103V114.759z" fill="#1fa1e1" data-original="#29abe2" class=""/>
    <path style="" d="M97.103,264.828h317.793v70.621H97.103V264.828z" fill="#1fa1e1" data-original="#29abe2" class=""/>
</g>
<path xmlns="http://www.w3.org/2000/svg" style="" d="M344.276,459.034l70.621-35.31l-70.621-35.31H0v70.621H344.276z"
      fill="#da4836" data-original="#da4836" class=""/>
<path xmlns="http://www.w3.org/2000/svg" style="" d="M44.138,388.414h35.31v70.621h-35.31V388.414z" fill="#f8cf26"
      data-original="#f8cf26" class=""/>
<path xmlns="http://www.w3.org/2000/svg" style="" d="M0,388.414h44.138v70.621H0V388.414z" fill="#fbb03b"
      data-original="#fbb03b" class=""/>
<path xmlns="http://www.w3.org/2000/svg" style="" d="M344.276,388.414l70.621,35.31l-70.621,35.31V388.414z"
      fill="#c69c6d" data-original="#c69c6d" class=""/>
<path xmlns="http://www.w3.org/2000/svg" style="" d="M79.448,423.724h264.828v35.31H79.448V423.724z" fill="#f7931e"
      data-original="#f7931e" class=""/>
<g xmlns="http://www.w3.org/2000/svg">
	<path style="" d="M238.345,141.241h185.379v17.655H238.345V141.241z" fill="#999999" data-original="#999999"
          class=""/>
    <path style="" d="M238.345,176.552h185.379v17.655H238.345V176.552z" fill="#999999" data-original="#999999"
          class=""/>
    <path style="" d="M238.345,211.862h150.069v17.655H238.345V211.862z" fill="#999999" data-original="#999999"
          class=""/>
    <path style="" d="M308.966,105.931h114.759v17.655H308.966V105.931z" fill="#999999" data-original="#999999"
          class=""/>
    <path style="" d="M273.655,105.931h17.655v17.655h-17.655V105.931z" fill="#999999" data-original="#999999" class=""/>
</g>
<path xmlns="http://www.w3.org/2000/svg" style="" d="M79.448,26.483h17.655v17.655H79.448V26.483z" fill="#da4836"
      data-original="#da4836" class=""/>
<path xmlns="http://www.w3.org/2000/svg" style="" d="M114.759,26.483h17.655v17.655h-17.655V26.483z" fill="#f8cf26"
      data-original="#f8cf26" class=""/>
<path xmlns="http://www.w3.org/2000/svg" style="" d="M150.069,26.483h17.655v17.655h-17.655V26.483z" fill="#3dbf50"
      data-original="#3dbf50" class=""/>
</g></svg>
